#Comment line ignore any data following # character 
#Hierarchical Translation and Rotation (.htr) file 
[Header]	
#Header keywords are followed by a single value 
FileType HTR		#Single word string
DataType HTRS		#Translation followed by rotation and scale data
FileVersion 1		#integer
NumSegments 64		#integer
NumFrames 3		#integer
DataFrameRate 30		#integer, data frame rate in this file
EulerRotationOrder ZYX
CalibrationUnits mm
RotationUnits Degrees
GlobalAxisofGravity Y
BoneLengthAxis Y
ScaleFactor 1.00
[SegmentNames&Hierarchy]
#CHILD	PARENT
Pinger_Root GLOBAL
Pelvis Pinger_Root
L_Hip Pelvis
R_Hip Pelvis
Rear_Leg01 Pelvis
Spine1 Pelvis
L_Leg01 L_Hip
L_Leg02 L_Leg01
L_Leg03 L_Leg02
L_Foot L_Leg03
L_Toe1_01 L_Foot
L_Toe2_01 L_Foot
L_Toe3_01 L_Foot
planeAlignerLeft L_Foot
L_Toe1_02 L_Toe1_01
L_Toe1_03 L_Toe1_02
L_Toe2_02 L_Toe2_01
L_Toe2_03 L_Toe2_02
L_Toe3_02 L_Toe3_01
L_Toe3_03 L_Toe3_02
planeLockWeightLeft planeAlignerLeft
R_Leg01 R_Hip
R_Leg02 R_Leg01
R_Leg03 R_Leg02
R_Foot R_Leg03
planeAlignerRight R_Foot
R_Toe1_01 R_Foot
R_Toe2_01 R_Foot
R_Toe3_01 R_Foot
planeLockWeightRight planeAlignerRight
R_Toe1_02 R_Toe1_01
R_Toe1_03 R_Toe1_02
R_Toe2_02 R_Toe2_01
R_Toe2_03 R_Toe2_02
R_Toe3_02 R_Toe3_01
R_Toe3_03 R_Toe3_02
Rear_Leg02 Rear_Leg01
Rear_Leg03 Rear_Leg02
Rear_Leg04 Rear_Leg03
Rear_Foot Rear_Leg04
planeAlignerCenter Rear_Foot
Rear_Toe1_01 Rear_Foot
Rear_Toe2_01 Rear_Foot
Rear_Toe3_01 Rear_Foot
planeLockWeightCenter planeAlignerCenter
Rear_Toe1_02 Rear_Toe1_01
Rear_Toe1_03 Rear_Toe1_02
Rear_Toe2_02 Rear_Toe2_01
Rear_Toe2_03 Rear_Toe2_02
Rear_Toe3_02 Rear_Toe3_01
Rear_Toe3_03 Rear_Toe3_02
Back_Bone Spine1
Head Spine1
Motor_Bone Back_Bone
Ping_Mechanism Back_Bone
BN_LookIK Head
bottomMouth Head
L_Mouth01 Head
L_mouthFront Head
mouthGun Head
R_Mouth01 Head
R_mouthFront Head
TopMouth Head
weapon_bone Head
[BasePosition]
#SegmentName Tx, Ty, Tz, Rx, Ry, Rz, BoneLength
Pinger_Root 0.000000 0.000000 0.000000 -90.000000 0.000000 0.000000 10.000000 
Pelvis 0.000000 0.000000 0.000000 0.000000 0.000000 0.000000 10.000000 
L_Hip 0.000000 0.000000 0.000000 0.000000 0.000000 0.000000 10.000000 
R_Hip 0.000000 0.000000 0.000000 0.000000 0.000000 0.000000 10.000000 
Rear_Leg01 0.000000 0.000000 0.000000 0.000000 0.000000 0.000000 10.000000 
Spine1 0.000000 0.000000 0.000000 0.000000 0.000000 0.000000 10.000000 
L_Leg01 0.000000 0.000000 0.000000 0.000000 0.000000 0.000000 10.000000 
L_Leg02 0.000000 0.000000 0.000000 0.000000 0.000000 0.000000 10.000000 
L_Leg03 0.000000 0.000000 0.000000 0.000000 0.000000 0.000000 10.000000 
L_Foot 0.000000 0.000000 0.000000 0.000000 0.000000 0.000000 10.000000 
L_Toe1_01 0.000000 0.000000 0.000000 0.000000 0.000000 0.000000 10.000000 
L_Toe2_01 0.000000 0.000000 0.000000 0.000000 0.000000 0.000000 10.000000 
L_Toe3_01 0.000000 0.000000 0.000000 0.000000 0.000000 0.000000 10.000000 
planeAlignerLeft 0.000000 0.000000 0.000000 0.000000 0.000000 0.000000 10.000000 
L_Toe1_02 0.000000 0.000000 0.000000 0.000000 0.000000 0.000000 10.000000 
L_Toe1_03 0.000000 0.000000 0.000000 0.000000 0.000000 0.000000 10.000000 
L_Toe2_02 0.000000 0.000000 0.000000 0.000000 0.000000 0.000000 10.000000 
L_Toe2_03 0.000000 0.000000 0.000000 0.000000 0.000000 0.000000 10.000000 
L_Toe3_02 0.000000 0.000000 0.000000 0.000000 0.000000 0.000000 10.000000 
L_Toe3_03 0.000000 0.000000 0.000000 0.000000 0.000000 0.000000 10.000000 
planeLockWeightLeft 0.000000 0.000000 0.000000 0.000000 0.000000 0.000000 10.000000 
R_Leg01 0.000000 0.000000 0.000000 0.000000 0.000000 0.000000 10.000000 
R_Leg02 0.000000 0.000000 0.000000 0.000000 0.000000 0.000000 10.000000 
R_Leg03 0.000000 0.000000 0.000000 0.000000 0.000000 0.000000 10.000000 
R_Foot 0.000000 0.000000 0.000000 0.000000 0.000000 0.000000 10.000000 
planeAlignerRight 0.000000 0.000000 0.000000 0.000000 0.000000 0.000000 10.000000 
R_Toe1_01 0.000000 0.000000 0.000000 0.000000 0.000000 0.000000 10.000000 
R_Toe2_01 0.000000 0.000000 0.000000 0.000000 0.000000 0.000000 10.000000 
R_Toe3_01 0.000000 0.000000 0.000000 0.000000 0.000000 0.000000 10.000000 
planeLockWeightRight 0.000000 0.000000 0.000000 0.000000 0.000000 0.000000 10.000000 
R_Toe1_02 0.000000 0.000000 0.000000 0.000000 0.000000 0.000000 10.000000 
R_Toe1_03 0.000000 0.000000 0.000000 0.000000 0.000000 0.000000 10.000000 
R_Toe2_02 0.000000 0.000000 0.000000 0.000000 0.000000 0.000000 10.000000 
R_Toe2_03 0.000000 0.000000 0.000000 0.000000 0.000000 0.000000 10.000000 
R_Toe3_02 0.000000 0.000000 0.000000 0.000000 0.000000 0.000000 10.000000 
R_Toe3_03 0.000000 0.000000 0.000000 0.000000 0.000000 0.000000 10.000000 
Rear_Leg02 0.000000 0.000000 0.000000 0.000000 0.000000 0.000000 10.000000 
Rear_Leg03 0.000000 0.000000 0.000000 0.000000 0.000000 0.000000 10.000000 
Rear_Leg04 0.000000 0.000000 0.000000 0.000000 0.000000 0.000000 10.000000 
Rear_Foot 0.000000 0.000000 0.000000 0.000000 0.000000 0.000000 10.000000 
planeAlignerCenter 0.000000 0.000000 0.000000 0.000000 0.000000 0.000000 10.000000 
Rear_Toe1_01 0.000000 0.000000 0.000000 0.000000 0.000000 0.000000 10.000000 
Rear_Toe2_01 0.000000 0.000000 0.000000 0.000000 0.000000 0.000000 10.000000 
Rear_Toe3_01 0.000000 0.000000 0.000000 0.000000 0.000000 0.000000 10.000000 
planeLockWeightCenter 0.000000 0.000000 0.000000 0.000000 0.000000 0.000000 10.000000 
Rear_Toe1_02 0.000000 0.000000 0.000000 0.000000 0.000000 0.000000 10.000000 
Rear_Toe1_03 0.000000 0.000000 0.000000 0.000000 0.000000 0.000000 10.000000 
Rear_Toe2_02 0.000000 0.000000 0.000000 0.000000 0.000000 0.000000 10.000000 
Rear_Toe2_03 0.000000 0.000000 0.000000 0.000000 0.000000 0.000000 10.000000 
Rear_Toe3_02 0.000000 0.000000 0.000000 0.000000 0.000000 0.000000 10.000000 
Rear_Toe3_03 0.000000 0.000000 0.000000 0.000000 0.000000 0.000000 10.000000 
Back_Bone 0.000000 0.000000 0.000000 0.000000 0.000000 0.000000 10.000000 
Head 0.000000 0.000000 0.000000 0.000000 0.000000 0.000000 10.000000 
Motor_Bone 0.000000 0.000000 0.000000 0.000000 0.000000 0.000000 10.000000 
Ping_Mechanism 0.000000 0.000000 0.000000 0.000000 0.000000 0.000000 10.000000 
BN_LookIK 0.000000 0.000000 0.000000 0.000000 0.000000 0.000000 10.000000 
bottomMouth 0.000000 0.000000 0.000000 0.000000 0.000000 0.000000 10.000000 
L_Mouth01 0.000000 0.000000 0.000000 0.000000 0.000000 0.000000 10.000000 
L_mouthFront 0.000000 0.000000 0.000000 0.000000 0.000000 0.000000 10.000000 
mouthGun 0.000000 0.000000 0.000000 0.000000 0.000000 0.000000 10.000000 
R_Mouth01 0.000000 0.000000 0.000000 0.000000 0.000000 0.000000 10.000000 
R_mouthFront 0.000000 0.000000 0.000000 0.000000 0.000000 0.000000 10.000000 
TopMouth 0.000000 0.000000 0.000000 0.000000 0.000000 0.000000 10.000000 
weapon_bone 0.000000 0.000000 0.000000 0.000000 0.000000 0.000000 10.000000 
#Beginning of Data. Separated by tabs
#Fr	Tx	Ty	Tz	Rx	Ry	Rz	SF
[Pinger_Root]
9 0.000000 0.000000 0.000000 -0.000075 -0.000000 -0.000020 0.000000
10 0.000000 0.000000 0.000000 -0.000075 -0.000000 -0.000020 0.000000
11 0.000000 0.000000 0.000000 -0.000075 -0.000000 -0.000020 0.000000
[Pelvis]
9 761.993774 570.841858 4649.017578 37.556435 -81.800781 -45.494724 4745.509277
10 790.447021 558.256409 4628.633789 36.616226 -81.570419 -44.569744 4728.710938
11 814.473267 547.782227 4585.599121 33.425926 -81.700951 -41.368233 4689.472168
[L_Hip]
9 5.766392 125.831482 872.656799 160.158691 -45.484905 122.312202 881.701050
10 5.766392 125.831482 872.656799 160.158691 -45.484905 122.312202 881.701050
11 5.766392 125.831482 872.656799 160.158691 -45.484894 122.312187 881.701050
[R_Hip]
9 5.765438 125.836372 -872.654907 38.087841 49.812687 125.703735 881.699829
10 5.765438 125.836372 -872.654907 38.087841 49.812698 125.703735 881.699829
11 5.765438 125.836372 -872.654907 38.087830 49.812672 125.703735 881.699829
[Rear_Leg01]
9 -192.298416 -925.602966 -0.001907 170.845261 -0.840812 -153.375732 945.367432
10 -192.298416 -925.602966 -0.001907 170.883911 -1.011280 -153.286362 945.367432
11 -192.298416 -925.602966 -0.001907 170.876083 -1.250444 -153.567245 945.367432
[Spine1]
9 290.604584 5.007505 0.000477 -10.625091 13.566798 0.945158 290.647736
10 290.604584 5.007505 0.000477 -11.113593 13.474393 0.746216 290.647736
11 290.604584 5.007505 0.000477 -11.601573 13.380344 0.548168 290.647736
[L_Leg01]
9 761.932007 -0.002384 -0.069261 30.149702 0.038157 -45.833824 761.932068
10 761.932007 -0.002384 -0.069261 30.173800 0.091539 -45.705414 761.932068
11 761.932007 -0.002384 -0.069261 30.070854 -0.237575 -44.805927 761.932068
[L_Leg02]
9 1441.140503 -0.000954 -0.000715 -1.602746 0.390635 -68.845833 1441.140503
10 1441.140503 -0.000954 -0.000715 -1.602152 0.393065 -68.672058 1441.140503
11 1441.140503 -0.000954 -0.000715 -1.599762 0.371414 -69.638840 1441.140503
[L_Leg03]
9 1686.963989 -0.000715 -0.000954 0.026247 -0.006547 103.159966 1686.963989
10 1686.963989 -0.000715 -0.000954 0.026256 -0.006511 103.002060 1686.963989
11 1686.963989 -0.000715 -0.000954 0.026208 -0.006700 103.827545 1686.963989
[L_Foot]
9 3041.570068 -30.715107 11.297464 -4.818646 13.010012 37.566296 3041.746094
10 3041.570068 -30.715107 11.297464 -5.170446 12.979313 37.257545 3041.746094
11 3041.570068 -30.715107 11.297464 -5.607453 12.934181 36.709812 3041.746094
[L_Toe1_01]
9 -188.216690 -224.732346 -21.137953 93.472054 -5.048277 -168.926010 293.899567
10 -188.216690 -224.732346 -21.137953 93.471710 -4.953784 -168.910645 293.899567
11 -188.216690 -224.732346 -21.137953 93.473518 -4.926892 -168.947540 293.899567
[L_Toe2_01]
9 200.746536 -219.926590 148.838394 -89.626511 -23.333279 -55.768234 332.896027
10 200.746536 -219.926590 148.838394 -89.661423 -23.225683 -55.760967 332.896027
11 200.746536 -219.926590 148.838394 -89.683235 -23.206152 -55.722008 332.896027
[L_Toe3_01]
9 188.832520 -219.859131 -191.078659 -101.207092 14.535067 -72.578194 347.140900
10 188.832520 -219.859131 -191.078659 -101.259033 14.624084 -72.646019 347.140900
11 188.832520 -219.859131 -191.078659 -101.268402 14.655815 -72.624924 347.140900
[planeAlignerLeft]
9 0.812531 -811.448792 -0.314951 0.000000 -90.000000 -90.001900 811.449280
10 0.812531 -811.448792 -0.314951 0.000000 -90.000000 -90.001900 811.449280
11 0.812531 -811.448792 -0.314951 0.000000 -90.000000 -90.001900 811.449280
[L_Toe1_02]
9 413.761139 0.000477 0.000000 0.000203 -25.410625 -0.000182 413.761139
10 413.761139 0.000477 0.000000 0.000203 -25.410625 -0.000182 413.761139
11 413.761139 0.000477 0.000000 0.000203 -25.410625 -0.000182 413.761139
[L_Toe1_03]
9 464.317322 0.000358 -0.000089 0.003649 52.480728 0.003649 464.317322
10 464.317322 0.000358 -0.000089 0.003650 52.488079 0.003650 464.317322
11 464.317322 0.000358 -0.000089 0.003651 52.495434 0.003651 464.317322
[L_Toe2_02]
9 342.235809 -0.000477 0.000238 0.001190 -70.969147 0.001190 342.235809
10 342.235809 -0.000477 0.000238 0.001190 -70.991722 0.001190 342.235809
11 342.235809 -0.000477 0.000238 0.001190 -71.014275 0.001190 342.235809
[L_Toe2_03]
9 420.210846 -0.000715 0.000000 0.016319 81.751976 0.016319 420.210846
10 420.210846 -0.000715 0.000000 0.016520 81.852226 0.016520 420.210846
11 420.210846 -0.000715 0.000000 0.016560 81.871864 0.016560 420.210846
[L_Toe3_02]
9 329.270111 0.000954 0.000000 0.001181 -77.528023 0.001181 329.270111
10 329.270111 0.000954 0.000000 0.001181 -77.491241 0.001181 329.270111
11 329.270111 0.000954 0.000000 0.001181 -77.454483 0.001181 329.270111
[L_Toe3_03]
9 439.137451 -0.001907 0.000954 -179.943802 88.862717 -179.940308 439.137451
10 439.137451 -0.001907 0.000954 -179.943726 88.864609 -179.940231 439.137451
11 439.137451 -0.001907 0.000954 -179.943634 88.866158 -179.940140 439.137451
[planeLockWeightLeft]
9 -0.000954 0.000238 -0.000305 -0.011826 -0.004376 0.005620 0.001029
10 -0.000954 0.000238 -0.000305 -0.011826 -0.004376 0.005620 0.001029
11 -0.000954 0.000238 -0.000305 -0.011826 -0.004376 0.005620 0.001029
[R_Leg01]
9 761.455627 -0.001907 -0.000358 117.127243 -7.642335 39.772842 761.455688
10 761.455627 -0.001907 -0.000358 117.206345 -8.862543 39.165874 761.455688
11 761.455627 -0.001907 -0.000358 117.452332 -10.465419 38.085018 761.455688
[R_Leg02]
9 1441.140625 0.000000 -0.000238 -1.536475 -0.287389 -124.376625 1441.140625
10 1441.140625 0.000000 -0.000238 -1.629555 -0.333173 -126.959419 1441.140625
11 1441.140625 0.000000 -0.000238 -1.720478 -0.383104 -129.542160 1441.140625
[R_Leg03]
9 1686.963989 0.000954 0.001431 0.081737 -0.047054 132.798599 1686.963989
10 1686.963989 0.000954 0.001431 0.084730 -0.048793 133.423203 1686.963989
11 1686.963989 0.000954 0.001431 0.087703 -0.050564 134.047775 1686.963989
[R_Foot]
9 3041.560059 -30.531288 -11.204481 -11.081525 -24.661562 58.089447 3041.734131
10 3041.560059 -30.531288 -11.204481 -11.495081 -24.612658 58.806835 3041.734131
11 3041.560059 -30.531288 -11.204481 -11.604330 -24.553478 59.377880 3041.734131
[planeAlignerRight]
9 -0.635147 -812.270569 -0.364304 0.000000 -89.960434 -90.005180 812.270874
10 -0.635147 -812.270569 -0.364304 0.000000 -89.960434 -90.005180 812.270874
11 -0.635147 -812.270569 -0.364304 0.000000 -89.960434 -90.005180 812.270874
[R_Toe1_01]
9 -188.383347 -224.864899 21.052242 76.743927 5.430823 -163.878418 294.101532
10 -188.383347 -224.864899 21.052242 76.768875 5.617336 -163.459686 294.101532
11 -188.383347 -224.864899 21.052242 76.784134 5.971690 -164.349304 294.101532
[R_Toe2_01]
9 200.637817 -220.002121 -148.787384 -96.806297 35.983562 -66.326118 332.857574
10 200.637817 -220.002121 -148.787384 -96.969246 36.031494 -66.593338 332.857574
11 200.637817 -220.002121 -148.787384 -97.007080 36.908508 -66.102554 332.857574
[R_Toe3_01]
9 188.606735 -220.092957 191.126343 -75.324760 -3.837181 -78.294678 347.192566
10 188.606735 -220.092957 191.126343 -75.394829 -3.663200 -78.544006 347.192566
11 188.606735 -220.092957 191.126343 -75.517601 -3.600554 -77.499878 347.192566
[planeLockWeightRight]
9 -0.000477 0.000000 0.000000 -0.011823 -0.004379 -0.000027 0.000477
10 -0.000477 0.000000 0.000000 -0.011823 -0.004379 -0.000027 0.000477
11 -0.000477 0.000000 0.000000 -0.011823 -0.004379 -0.000027 0.000477
[R_Toe1_02]
9 413.762085 0.000477 -0.000119 0.001385 -25.877172 0.001385 413.762085
10 413.762085 0.000477 -0.000119 0.001385 -25.860678 0.001385 413.762085
11 413.762085 0.000477 -0.000119 0.001385 -25.809946 0.001385 413.762085
[R_Toe1_03]
9 464.317810 0.000000 0.001088 0.003380 49.369263 0.003380 464.317810
10 464.317810 0.000000 0.001088 0.003303 48.369732 0.003303 464.317810
11 464.317810 0.000000 0.001088 0.003297 48.293858 0.003297 464.317810
[R_Toe2_02]
9 342.234741 -0.000954 0.000238 0.001209 -62.278473 0.001209 342.234741
10 342.234741 -0.000954 0.000238 0.001210 -61.937862 0.001210 342.234741
11 342.234741 -0.000954 0.000238 0.001207 -63.147209 0.001207 342.234741
[R_Toe2_03]
9 420.210846 0.000715 -0.000268 -0.004397 64.502831 -0.000812 420.210846
10 420.210846 0.000715 -0.000268 -0.004345 63.953964 -0.000756 420.210846
11 420.210846 0.000715 -0.000268 -0.004554 66.017975 -0.000979 420.210846
[R_Toe3_02]
9 329.270355 -0.000477 -0.000954 0.001184 -74.848328 0.001184 329.270355
10 329.270355 -0.000477 -0.000954 0.001184 -74.736252 0.001184 329.270355
11 329.270355 -0.000477 -0.000954 0.001182 -76.174492 0.001182 329.270355
[R_Toe3_03]
9 439.137939 0.000238 0.001431 -0.012950 84.116936 -0.009449 439.137939
10 439.137939 0.000238 0.001431 -0.012420 83.824196 -0.008919 439.137939
11 439.137939 0.000238 0.001431 -0.028835 87.568275 -0.025337 439.137939
[Rear_Leg02]
9 1162.777710 -0.029802 0.005960 0.890029 -2.848645 -128.994141 1162.777710
10 1162.777710 -0.029802 0.005960 0.942155 -2.830872 -130.034653 1162.777710
11 1162.777710 -0.029802 0.005960 1.022854 -2.801805 -131.717392 1162.777710
[Rear_Leg03]
9 607.192505 -0.013351 -0.073195 0.010572 -0.004939 66.439651 607.192505
10 607.192505 -0.013351 -0.073195 0.010559 -0.004966 66.727119 607.192505
11 607.192505 -0.013351 -0.073195 0.010534 -0.005019 67.308411 607.192505
[Rear_Leg04]
9 995.874512 -0.020504 -0.011921 -0.043607 -0.017899 62.432663 995.874573
10 995.874512 -0.020504 -0.011921 -0.043724 -0.017611 63.185959 995.874573
11 995.874512 -0.020504 -0.011921 -0.043909 -0.017146 64.403473 995.874573
[Rear_Foot]
9 3096.176270 -0.067472 -0.041425 -167.806335 77.483360 20.010044 3096.176270
10 3096.176270 -0.067472 -0.041425 -168.213196 77.059914 19.522905 3096.176270
11 3096.176270 -0.067472 -0.041425 -168.591782 76.635719 19.063950 3096.176270
[planeAlignerCenter]
9 0.350077 0.966311 -838.790894 0.000009 0.000003 -179.999985 838.791565
10 0.350077 0.966311 -838.790894 0.000009 0.000003 -179.999985 838.791565
11 0.350077 0.966311 -838.790894 0.000009 0.000003 -179.999985 838.791565
[Rear_Toe1_01]
9 0.653352 83.966492 -371.173737 0.288091 41.914127 90.413170 380.553192
10 0.653352 83.966492 -371.173737 0.288091 41.914127 90.413170 380.553192
11 0.653352 83.966492 -371.173737 0.288091 41.914127 90.413170 380.553192
[Rear_Toe2_01]
9 178.200760 -294.826019 -362.060547 -7.196267 34.406261 -66.271294 499.765686
10 178.200760 -294.826019 -362.060547 -7.196267 34.406261 -66.271294 499.765686
11 178.200760 -294.826019 -362.060547 -7.196267 34.406261 -66.271294 499.765686
[Rear_Toe3_01]
9 -153.359680 -308.780914 -362.060852 3.289418 33.518005 -112.540970 499.952881
10 -153.359680 -308.780914 -362.060852 3.289420 33.518009 -112.540970 499.952881
11 -153.359680 -308.780914 -362.060852 3.289418 33.518005 -112.540970 499.952881
[planeLockWeightCenter]
9 -0.000062 0.000238 0.000000 -0.011814 -0.004373 -0.000015 0.000246
10 -0.000062 0.000238 0.000000 -0.011814 -0.004373 -0.000015 0.000246
11 -0.000062 0.000238 0.000000 -0.011814 -0.004373 -0.000015 0.000246
[Rear_Toe1_02]
9 379.707825 0.194073 0.000477 -0.000242 -31.676744 0.006934 379.707855
10 379.707825 0.194073 0.000477 -0.000242 -31.676744 0.006934 379.707855
11 379.707825 0.194073 0.000477 -0.000242 -31.676744 0.006934 379.707855
[Rear_Toe1_03]
9 500.129700 0.165701 0.000119 -0.000103 51.902481 0.007295 500.129761
10 500.129700 0.165701 0.000119 -0.000103 51.902485 0.007295 500.129761
11 500.129700 0.165701 0.000119 -0.000103 51.902466 0.007295 500.129761
[Rear_Toe2_02]
9 340.494507 0.000238 -0.000954 0.001192 -69.854523 0.001192 340.494507
10 340.494507 0.000238 -0.000954 0.001192 -69.854523 0.001192 340.494507
11 340.494507 0.000238 -0.000954 0.001192 -69.854523 0.001192 340.494507
[Rear_Toe2_03]
9 433.103577 0.000000 0.000238 0.006696 69.810326 0.006696 433.103546
10 433.103577 0.000000 0.000238 0.006696 69.810326 0.006696 433.103546
11 433.103577 0.000000 0.000238 0.006696 69.810326 0.006696 433.103546
[Rear_Toe3_02]
9 340.494141 -0.000358 -0.000477 0.008288 -67.274704 -0.009460 340.494171
10 340.494141 -0.000358 -0.000477 0.008288 -67.274704 -0.009460 340.494171
11 340.494141 -0.000358 -0.000477 0.008288 -67.274704 -0.009460 340.494171
[Rear_Toe3_03]
9 433.103577 0.001431 -0.000238 -0.000972 65.958984 -0.004547 433.103546
10 433.103577 0.001431 -0.000238 -0.000972 65.958984 -0.004547 433.103546
11 433.103577 0.001431 -0.000238 -0.000972 65.958961 -0.004547 433.103546
[Back_Bone]
9 1312.175781 -701.934692 0.000954 0.000023 -0.000007 -85.606667 1488.125488
10 1312.175781 -701.934692 0.000954 0.000023 -0.000007 -85.606667 1488.125488
11 1312.175781 -701.934692 0.000954 0.000023 -0.000007 -85.606667 1488.125488
[Head]
9 1406.159424 809.709290 0.001431 0.703815 8.495972 -4.509915 1622.625488
10 1406.159424 809.709290 0.001431 0.703864 8.889744 -5.208774 1622.625488
11 1406.159424 809.709290 0.001431 0.703958 9.102702 -5.650292 1622.625488
[Motor_Bone]
9 1158.364380 -417.834747 0.000477 -0.000105 0.000046 -105.985291 1231.419434
10 1158.364380 -417.834747 0.000477 -0.000105 0.000046 -105.985291 1231.419434
11 1158.364380 -417.834747 0.000477 -0.000105 0.000046 -105.985291 1231.419434
[Ping_Mechanism]
9 1215.237793 -433.297150 0.000954 0.000103 -0.000053 82.120995 1290.174072
10 1215.237793 -433.297150 0.000954 0.000103 -0.000053 82.120995 1290.174072
11 1215.237793 -433.297150 0.000954 0.000103 -0.000053 82.120995 1290.174072
[BN_LookIK]
9 193.241119 1380.371704 -0.002861 0.000000 89.965736 -31.038179 1393.832153
10 193.241119 1380.371704 -0.002861 0.000000 89.965736 -31.038179 1393.832153
11 193.241119 1380.371704 -0.002861 0.000000 89.965736 -31.038179 1393.832153
[bottomMouth]
9 -435.092926 615.759399 -0.000954 -0.000022 0.000016 73.527184 753.966492
10 -435.092926 615.759399 -0.000954 -0.000022 0.000016 73.527184 753.966492
11 -435.092926 615.759399 -0.000954 -0.000022 0.000016 73.527184 753.966492
[L_Mouth01]
9 554.440979 7.658243 838.222046 150.204178 23.759130 109.605339 1005.027161
10 554.440979 7.658243 838.222046 150.204178 23.759130 109.605339 1005.027161
11 554.440979 7.658243 838.222046 150.204178 23.759130 109.605339 1005.027161
[L_mouthFront]
9 551.629089 934.514771 339.150421 0.000081 2.804060 79.119301 1136.941284
10 551.629089 934.514771 339.150421 0.000081 2.804060 79.119301 1136.941284
11 551.629089 934.514771 339.150421 0.000081 2.804060 79.119301 1136.941284
[mouthGun]
9 55.332661 1627.420898 0.000000 0.000023 0.000009 -11.038128 1628.361328
10 55.332661 1627.420898 0.000000 0.000023 0.000009 -11.038128 1628.361328
11 55.332661 1627.420898 0.000000 0.000023 0.000009 -11.038128 1628.361328
[R_Mouth01]
9 554.442383 7.659197 -838.223938 29.795891 -23.759109 109.605331 1005.029541
10 554.442383 7.659197 -838.223938 29.795891 -23.759109 109.605331 1005.029541
11 554.442383 7.659197 -838.223938 29.795891 -23.759109 109.605331 1005.029541
[R_mouthFront]
9 551.629089 934.514282 -339.151367 0.000029 -2.803930 79.119133 1136.941162
10 551.629089 934.514282 -339.151367 0.000029 -2.803930 79.119133 1136.941162
11 551.629089 934.514282 -339.151367 0.000029 -2.803930 79.119133 1136.941162
[TopMouth]
9 461.269867 -56.106091 -0.008583 -0.000059 -0.000268 92.025169 464.669525
10 461.269867 -56.106091 -0.008583 -0.000059 -0.000268 92.025169 464.669525
11 461.269867 -56.106091 -0.008583 -0.000059 -0.000268 92.025169 464.669525
[weapon_bone]
9 -987.239868 1448.372803 0.001431 0.000000 89.965736 -31.038221 1752.833740
10 -987.239868 1448.372803 0.001431 0.000000 89.965736 -31.038221 1752.833740
11 -987.239868 1448.372803 0.001431 0.000000 89.965736 -31.038221 1752.833740
